<?xml version="1.0" encoding="UTF-8"?>
<svg version="1.1" xmlns="http://www.w3.org/2000/svg" width="1231" height="753">
<path d="M0 0 C406.23 0 812.46 0 1231 0 C1231 248.49 1231 496.98 1231 753 C824.77 753 418.54 753 0 753 C0 504.51 0 256.02 0 0 Z " fill="#2ECC40" transform="translate(0,0)"/>
<path d="M0 0 C1.54408746 -0.00913666 1.54408746 -0.00913666 3.11936861 -0.01845789 C6.56158987 -0.03507953 10.00344088 -0.03031316 13.44569397 -0.0255127 C15.91647729 -0.03285343 18.38725719 -0.04143967 20.85803223 -0.05117798 C26.8683132 -0.07109352 32.87844914 -0.07677473 38.88875025 -0.07499009 C43.77506376 -0.07368099 48.66134724 -0.07749417 53.54765511 -0.08491516 C54.95667618 -0.08701441 56.36569726 -0.08911201 57.77471834 -0.09120798 C58.47608463 -0.09225151 59.17745092 -0.09329504 59.90007073 -0.09437019 C73.15512406 -0.11325912 86.41012199 -0.11222633 99.66518319 -0.10540086 C111.78415767 -0.09982478 123.90292079 -0.12065586 136.02184587 -0.15376133 C148.47486097 -0.18751466 160.92777486 -0.20266473 173.38083655 -0.1980443 C180.36860277 -0.19580147 187.3561736 -0.20101554 194.34390068 -0.22593689 C200.91443977 -0.24917153 207.48461249 -0.24634741 214.05518532 -0.22600937 C216.46583268 -0.22259487 218.87650955 -0.2277072 221.287117 -0.24199295 C224.57970263 -0.26015837 227.87078979 -0.2474547 231.16333008 -0.22705078 C232.11577148 -0.23956863 233.06821288 -0.25208648 234.04951614 -0.26498365 C245.12109806 -0.1180309 252.10985583 6.88208163 259.64515686 14.39440918 C274.16078798 29.98010285 284.48920983 48.87887036 294.89710999 67.30651855 C296.51328814 70.16146567 298.14655265 73.00578161 299.78578186 75.84753418 C300.69800828 77.44605443 301.60952172 79.04498188 302.52015686 80.64440918 C302.9308844 81.35210449 303.34161194 82.0597998 303.76478577 82.78894043 C305.94542262 86.6664713 307.21088994 89.88363668 307.64515686 94.39440918 C308.30515686 94.39440918 308.96515686 94.39440918 309.64515686 94.39440918 C317.22625345 109.28691907 317.22625345 109.28691907 318.13392639 113.85339355 C319.12799372 117.25909978 320.03586167 118.94678965 322.64515686 121.39440918 C329.38490257 123.64113428 336.99755531 123.21844283 344.02015686 123.39440918 C346.17498768 123.48555557 348.32961789 123.58156513 350.48402405 123.68225098 C355.88886178 123.92567462 361.29403972 124.11881912 366.70143127 124.29522705 C373.76890202 124.53334938 380.83207219 124.86496449 387.89515686 125.20690918 C388.63183594 125.24099884 389.36851501 125.2750885 390.1275177 125.31021118 C407.09112151 126.11050932 423.99882384 127.62107667 440.9107666 129.13244247 C443.10944862 129.32872146 445.30826098 129.52348403 447.50709534 129.7180481 C461.29150463 130.94207222 475.06591017 132.21891325 488.79359436 133.98425293 C489.71450867 134.10187485 490.63542297 134.21949677 491.58424377 134.34068298 C505.52744757 136.21731576 517.66804104 142.15545392 526.95765686 152.95690918 C533.72094573 162.14179937 539.19489292 173.23754071 541.64515686 184.39440918 C541.92101624 185.59452637 542.19687561 186.79464355 542.48109436 188.03112793 C544.48569673 197.31177853 544.91895977 205.90257501 544.64515686 215.39440918 C549.26515686 215.39440918 553.88515686 215.39440918 558.64515686 215.39440918 C558.64515686 233.54440918 558.64515686 251.69440918 558.64515686 270.39440918 C536.53515686 270.39440918 514.42515686 270.39440918 491.64515686 270.39440918 C490.65515686 261.81440918 489.66515686 253.23440918 488.64515686 244.39440918 C480.86435109 219.9404482 464.84208529 201.97280969 442.19740295 190.12536621 C428.86915063 183.36799992 416.26739226 181.24847147 401.39515686 181.14440918 C400.47242981 181.13506348 399.54970276 181.12571777 398.59901428 181.11608887 C392.68374285 181.14370303 387.35115493 181.85833172 381.64515686 183.39440918 C380.99337463 183.56069824 380.34159241 183.7269873 379.6700592 183.89831543 C365.05914618 187.7497745 352.99588041 194.33806638 341.64515686 204.39440918 C340.97226624 204.97319824 340.29937561 205.5519873 339.60609436 206.14831543 C330.9310547 214.14939782 323.65079761 225.29857009 319.64515686 236.39440918 C319.23716858 237.42694824 319.23716858 237.42694824 318.82093811 238.48034668 C315.03584664 248.70932559 314.54321926 259.61766043 313.64515686 270.39440918 C210.35515686 270.39440918 107.06515686 270.39440918 0.64515686 270.39440918 C-1.55503023 258.29338018 -1.55503023 258.29338018 -1.79234314 253.14440918 C-2.15166013 248.17171868 -3.17338978 244.84457404 -5.35484314 240.39440918 C-5.62296814 239.32190918 -5.89109314 238.24940918 -6.16734314 237.14440918 C-12.98335228 215.62016978 -30.42131932 200.36108723 -49.74693298 190.17687988 C-69.3156283 180.15515608 -93.38546466 177.69932699 -114.58531189 184.00378418 C-126.21360135 188.12707285 -136.78071393 193.5538017 -146.35484314 201.39440918 C-147.42605408 202.23938965 -147.42605408 202.23938965 -148.51890564 203.10144043 C-164.7406017 216.47337907 -174.88516552 236.79156852 -176.99546814 257.47253418 C-177.11406189 258.76675293 -177.23265564 260.06097168 -177.35484314 261.39440918 C-177.68484314 264.36440918 -178.01484314 267.33440918 -178.35484314 270.39440918 C-200.79484314 270.39440918 -223.23484314 270.39440918 -246.35484314 270.39440918 C-246.35484314 256.86440918 -246.35484314 243.33440918 -246.35484314 229.39440918 C-237.11484314 229.39440918 -227.87484314 229.39440918 -218.35484314 229.39440918 C-218.39609314 226.15628418 -218.43734314 222.91815918 -218.47984314 219.58190918 C-218.56368938 195.11521178 -216.10902329 165.72016695 -198.47984314 147.01940918 C-191.65956818 140.5635764 -183.36599599 137.85608693 -174.25328064 136.13269043 C-173.05735291 135.90412354 -171.86142517 135.67555664 -170.6292572 135.44006348 C-168.69904724 135.0771521 -168.69904724 135.0771521 -166.72984314 134.70690918 C-165.37786306 134.4493353 -164.02597684 134.19126827 -162.67417908 133.93273926 C-159.78059961 133.37963283 -156.88668842 132.82831143 -153.99253845 132.27819824 C-146.66532996 130.8837495 -139.34211166 129.46867555 -132.0196991 128.04928589 C-129.62965107 127.58671056 -127.23909484 127.12683058 -124.84849548 126.66711426 C-123.37662835 126.38232972 -121.9047847 126.09742376 -120.43296814 125.81237793 C-119.13778259 125.5625415 -117.84259705 125.31270508 -116.50816345 125.05529785 C-112.20224233 124.36380963 -112.20224233 124.36380963 -109.10313416 121.65466309 C-108.4871637 120.52423584 -108.4871637 120.52423584 -107.85874939 119.37097168 C-107.38953064 118.52542725 -106.92031189 117.67988281 -106.43687439 116.80871582 C-105.93542908 115.88824463 -105.43398376 114.96777344 -104.91734314 114.01940918 C-96.46450728 98.89899068 -87.10477998 84.43747262 -77.54258728 70.00180054 C-76.68400812 68.70524939 -75.82669606 67.40785805 -74.97080994 66.10952759 C-31.21767541 -0.17422259 -31.21767541 -0.17422259 0 0 Z " fill="#FDFEFD" transform="translate(456.35484313964844,252.6055908203125)"/>
<path d="M0 0 C3.06101686 2.69061125 5.96392423 5.51107836 8.84765625 8.390625 C9.88599609 9.4115625 9.88599609 9.4115625 10.9453125 10.453125 C22.52601098 22.67012559 27.59741862 40.84011542 27.30517578 57.35351562 C26.83198436 68.83252736 24.79464407 79.94419388 19.84765625 90.390625 C19.18765625 90.390625 18.52765625 90.390625 17.84765625 90.390625 C17.66203125 91.195 17.47640625 91.999375 17.28515625 92.828125 C11.41141158 107.38479658 -3.22022659 118.08475001 -17.15234375 124.140625 C-26.78614708 128.1173694 -35.93120684 129.95528998 -46.33984375 129.890625 C-47.43337158 129.88417969 -48.52689941 129.87773438 -49.65356445 129.87109375 C-68.84871898 129.44085509 -85.8902297 121.25451037 -99.15234375 107.390625 C-108.86773516 96.64883522 -114.78022189 85.45926243 -118.15234375 71.390625 C-118.4138623 70.44147217 -118.4138623 70.44147217 -118.68066406 69.47314453 C-122.24784994 53.72361269 -118.54631505 35.71757257 -110.77734375 21.828125 C-107.5458239 16.76401165 -104.05977145 11.95372084 -100.15234375 7.390625 C-99.65605469 6.79894531 -99.15976562 6.20726562 -98.6484375 5.59765625 C-73.80627181 -21.61042998 -27.73337237 -23.48820905 0 0 Z " fill="#FCFEFC" transform="translate(413.15234375,465.609375)"/>
<path d="M0 0 C0.72574219 0.35835938 1.45148438 0.71671875 2.19921875 1.0859375 C20.73862638 10.72772367 33.03573759 26.60007377 39.2734375 46.34375 C43.60902474 62.19428398 41.32372321 79.6769358 36 95 C35.34 95 34.68 95 34 95 C33.814375 95.78375 33.62875 96.5675 33.4375 97.375 C27.05501633 113.46995881 12.56373387 125.41795973 -2.703125 132.64453125 C-21.91366109 140.54270189 -43.03406792 140.5253749 -62.23046875 132.6796875 C-69.30143532 129.39961936 -75.19246343 125.16772322 -81 120 C-81.69867187 119.39542969 -82.39734375 118.79085937 -83.1171875 118.16796875 C-89.0987307 112.64027805 -93.06016593 106.07648309 -97 99 C-97.49757813 98.13761719 -97.99515625 97.27523437 -98.5078125 96.38671875 C-106.7225582 80.57210352 -107.00447588 59.00516497 -102.4375 42.0625 C-98.41400737 30.77356385 -91.38924399 21.41822238 -83 13 C-82.32582031 12.30261719 -81.65164063 11.60523438 -80.95703125 10.88671875 C-59.93966847 -9.42086443 -25.69260563 -13.25147377 0 0 Z " fill="#FCFEFC" transform="translate(891,457)"/>
<path d="M0 0 C15.345 -0.12375 30.69 -0.2475 46.5 -0.375 C51.33462891 -0.42962402 56.16925781 -0.48424805 61.15039062 -0.54052734 C67.08105469 -0.56762695 67.08105469 -0.56762695 69.8626709 -0.57266235 C71.7940705 -0.5818404 73.72543696 -0.60286988 75.65661621 -0.63345337 C78.59264279 -0.67760214 81.52658013 -0.68342912 84.46289062 -0.68115234 C85.31473183 -0.70274099 86.16657303 -0.72432964 87.0442276 -0.74657249 C95.40322801 -0.66024548 99.84469283 3.90365985 105.65234375 9.41015625 C108.97917886 12.85180717 111.82960814 16.51345811 114.5625 20.4375 C115.32167725 21.52333374 115.32167725 21.52333374 116.09619141 22.63110352 C128.55775667 40.80342874 138.70411016 60.55498559 149 80 C149.50644043 80.95503418 150.01288086 81.91006836 150.53466797 82.89404297 C153.37422638 88.2534367 156.20713886 93.61610279 159 99 C159.58394531 100.11890625 160.16789063 101.2378125 160.76953125 102.390625 C162 105 162 105 162 107 C144.27078053 107.16106915 126.61734672 106.71279583 108.90625 105.94140625 C106.29229455 105.83128381 103.67832112 105.72158722 101.06433105 105.61228943 C95.6355087 105.38457025 90.20686081 105.1530394 84.77832031 104.91870117 C77.86544554 104.62030198 70.95232384 104.32809053 64.03910065 104.03788853 C57.36972496 103.75789937 50.70048674 103.47468387 44.03125 103.19140625 C42.78567825 103.13870638 41.54010651 103.08600651 40.25679016 103.03170967 C36.68740273 102.8801566 33.11810527 102.72663613 29.54882812 102.57250977 C28.52713531 102.52935135 27.5054425 102.48619293 26.45278931 102.44172668 C17.62652691 102.05708842 8.8230982 101.51900578 0 101 C0 67.67 0 34.34 0 0 Z " fill="#2FCC41" transform="translate(596,267)"/>
<path d="M0 0 C0.74413713 -0.0003616 1.48827427 -0.00072321 2.25496101 -0.00109577 C4.64567814 0.00112993 7.03567919 0.02391244 9.42626953 0.04760742 C10.9094204 0.05202247 12.39257594 0.05508042 13.87573242 0.0567627 C19.35358726 0.07244277 24.8313418 0.11432666 30.30908203 0.15307617 C42.56033203 0.21495117 54.81158203 0.27682617 67.43408203 0.34057617 C67.43408203 33.67057617 67.43408203 67.00057617 67.43408203 101.34057617 C21.23408203 101.34057617 -24.96591797 101.34057617 -72.56591797 101.34057617 C-70.3086364 92.31144992 -67.32723942 83.85735581 -63.56591797 75.34057617 C-63.06189453 74.19717773 -62.55787109 73.0537793 -62.03857422 71.87573242 C-51.74596663 48.96887643 -29.36844359 -0.14832547 0 0 Z " fill="#2FCC41" transform="translate(502.56591796875,266.659423828125)"/>
<path d="M0 0 C3.3430922 2.45320435 6.31366041 5.0046956 9.0625 8.125 C9.56652344 8.68703125 10.07054687 9.2490625 10.58984375 9.828125 C17.63602461 18.30421542 18.64782574 27.760808 18.41796875 38.53125 C17.34724652 49.35613409 11.35079742 57.69169039 3.28125 64.6640625 C-1.50051251 68.51603786 -6.04764093 70.51022601 -11.9375 72.125 C-12.9275 72.455 -13.9175 72.785 -14.9375 73.125 C-26.69971918 74.1581679 -36.72829795 71.55515166 -45.9375 64.125 C-54.19997497 57.02860013 -59.27989642 49.1786637 -60.30859375 38.14453125 C-60.6614203 26.13000782 -58.67615292 17.16569775 -50.6875 7.75 C-37.11521547 -6.20302519 -17.20172715 -11.10527477 0 0 Z " fill="#30CC42" transform="translate(387.9375,488.875)"/>
<path d="M0 0 C4.60237807 3.26234425 7.93267982 6.1451716 10.94140625 10.97265625 C11.52277344 11.88789063 12.10414063 12.803125 12.703125 13.74609375 C15.94996821 19.7163596 16.59420452 24.81219151 16.56640625 31.47265625 C16.58251953 32.23707031 16.59863281 33.00148438 16.61523438 33.7890625 C16.62427034 44.43342709 11.70647999 53.07074561 4.62890625 60.78515625 C-2.41695649 67.56463477 -12.65420975 71.48915159 -22.37109375 71.97265625 C-34.72114052 71.70828216 -44.46547872 66.42120949 -52.8515625 57.73046875 C-60.5410148 49.07388946 -62.2617851 40.02308429 -61.984375 28.60546875 C-61.10586705 17.51610614 -56.66594969 9.04271146 -48.45703125 1.4921875 C-33.45786808 -9.96482801 -15.67137291 -9.94376454 0 0 Z " fill="#30CC41" transform="translate(881.74609375,490.40234375)"/>
</svg>
